<svg xmlns="http://www.w3.org/2000/svg" version="1.1" xmlns:xlink="http://www.w3.org/1999/xlink" xmlns:svgjs="http://svgjs.dev/svgjs" width="2000" height="1999" viewBox="0 0 2000 1999"><g transform="matrix(1,0,0,1,-0.431486880466764,-0.4312711370263287)"><svg viewBox="0 0 343 343" data-background-color="#ffffff" preserveAspectRatio="xMidYMid meet" height="1999" width="2000" xmlns="http://www.w3.org/2000/svg" xmlns:xlink="http://www.w3.org/1999/xlink"><g id="tight-bounds" transform="matrix(1,0,0,1,0.0740000000000407,0.07400000000001228)"><svg viewBox="0 0 342.85155851775386 342.85155851775386" height="342.85155851775386" width="342.85155851775386"><g><svg></svg></g><g><svg viewBox="0 0 342.85155851775386 342.85155851775386" height="342.85155851775386" width="342.85155851775386"><g><path d="M0 171.426c0-94.676 76.75-171.426 171.426-171.426 94.676 0 171.426 76.75 171.426 171.426 0 94.676-76.75 171.426-171.426 171.426-94.676 0-171.426-76.75-171.426-171.426zM171.426 338.295c92.159 0 166.869-74.71 166.869-166.869 0-92.159-74.71-166.869-166.869-166.869-92.159 0-166.869 74.71-166.869 166.869 0 92.159 74.71 166.869 166.869 166.869z" data-fill-palette-color="tertiary" fill="#e65728" stroke="transparent"></path><ellipse rx="164.56874808852186" ry="164.56874808852186" cx="171.42577925887693" cy="171.42577925887693" fill="#e65728" stroke="transparent" stroke-width="0" fill-opacity="1" data-fill-palette-color="tertiary"></ellipse></g><g transform="matrix(1,0,0,1,64.84655864529837,105.277611540098)"><svg viewBox="0 0 213.1584412271571 132.29633543755787" height="132.29633543755787" width="213.1584412271571"><g><svg viewBox="0 0 213.1584412271571 132.29633543755787" height="132.29633543755787" width="213.1584412271571"><g><svg viewBox="0 0 213.1584412271571 132.29633543755787" height="132.29633543755787" width="213.1584412271571"><g transform="matrix(1,0,0,1,0,81.76444276616182)"><svg viewBox="0 0 213.1584412271571 50.531892671396044" height="50.531892671396044" width="213.1584412271571"><g id="textblocktransform"><svg viewBox="0 0 213.1584412271571 50.531892671396044" height="50.531892671396044" width="213.1584412271571" id="textblock"><g><svg viewBox="0 0 213.1584412271571 50.531892671396044" height="50.531892671396044" width="213.1584412271571"><g transform="matrix(1,0,0,1,0,0)"><svg width="213.1584412271571" viewBox="4.5 -37.1 202.89 48.1" height="50.531892671396044" data-palette-color="#ffffff"><path d="M9.75 0L4.5 0 5-4 5-35 12.25-35 22-8.35 22.75-5.25 23.15-5.25 23.9-8.35 33.65-35 40.9-35 40.9-4 41.4 0 36.15 0 36.65-4 36.65-30.85 36.05-30.85 34.55-25.2 25.2-0.5 20.7-0.5 11.35-25.2 9.85-30.85 9.25-30.85 9.25-4 9.75 0ZM70.85 0L50.4 0 50.9-4 50.9-31 50.4-35 70.85-35 70.85-30.6 67.85-31.1 55.15-31.1 55.15-19.65 69.3-19.65 69.3-15.55 66.3-15.95 55.15-15.95 55.15-3.9 67.85-3.9 70.85-4.4 70.85 0ZM84 0L78.75 0 79.25-4 79.25-31 78.75-35 90.9-35Q94.59-35 97.2-33.52 99.8-32.05 101.17-29.7 102.55-27.35 102.55-24.65L102.55-24.65Q102.55-22.85 101.9-21.03 101.25-19.2 99.87-17.68 98.5-16.15 96.27-15.23 94.05-14.3 90.9-14.3L90.9-14.3 83.5-14.3 83.5-4 84 0ZM104.15 0L99.09 0 96.9-4 88.65-15.8 92.5-15.8 95.5-13.05 104.15 0ZM83.5-31.3L83.5-18 90.7-18Q94.5-18 96.22-19.93 97.95-21.85 97.95-24.45L97.95-24.45Q97.95-27.25 96.09-29.28 94.25-31.3 90.59-31.3L90.59-31.3 83.5-31.3ZM117.09 0L111.84 0 112.34-4 112.34-35 117.34-35 134.14-9.8 136.09-4.9 136.49-4.9 136.49-31 135.99-35 141.24-35 140.74-31 140.74 0 135.74 0 118.94-25.2 116.99-30.05 116.59-30.05 116.59-4 117.09 0ZM154.74-29.7L154.74-29.7Q153.54-29.7 152.69-30.48 151.84-31.25 151.84-32.6L151.84-32.6Q151.84-33.95 152.69-34.73 153.54-35.5 154.74-35.5L154.74-35.5Q155.94-35.5 156.79-34.73 157.64-33.95 157.64-32.6L157.64-32.6Q157.64-31.25 156.79-30.48 155.94-29.7 154.74-29.7ZM158.14 0L152.94 0 153.44-4 153.44-22.1 148.24-22.1 148.24-25.5 158.14-25.5 157.64-21.5 157.64-4 158.14 0ZM180.49-32.75L179.69-32.25Q178.89-33.05 178.01-33.27 177.14-33.5 176.39-33.5L176.39-33.5Q174.09-33.5 173.21-32.2 172.34-30.9 172.34-28.7L172.34-28.7 172.34-4 172.84 0 167.64 0 168.14-4 168.14-28.7Q168.14-32.85 170.14-34.98 172.14-37.1 176.09-37.1L176.09-37.1Q177.39-37.1 178.46-36.9 179.54-36.7 180.49-36.35L180.49-36.35 180.49-32.75ZM166.34-22L163.84-21.75 163.84-25.5 167.04-25.5 170.24-24 173.44-25.5 179.49-25.5 179.49-21.75 176.99-22 166.34-22ZM186.04 7.3L186.64 6.8Q187.04 7.1 187.46 7.2 187.89 7.3 188.29 7.3L188.29 7.3Q189.44 7.3 190.41 6.68 191.39 6.05 191.89 4.75L191.89 4.75 193.34 0.85 182.79-25.5 187.59-25.5 188.69-21.8 194.79-5.9 195.24-3.05 195.54-3.05 195.99-5.9 201.49-21.8 202.59-25.5 207.39-25.5 195.39 5.95Q194.69 7.8 193.54 8.9 192.39 10 191.04 10.5 189.69 11 188.29 11L188.29 11Q187.59 11 187.06 10.88 186.54 10.75 186.04 10.55L186.04 10.55 186.04 7.3Z" opacity="1" transform="matrix(1,0,0,1,0,0)" fill="#ffffff" class="wordmark-text-0" data-fill-palette-color="quaternary" id="text-0"></path></svg></g></svg></g></svg></g></svg></g><g transform="matrix(1,0,0,1,73.27842998732885,0)"><svg viewBox="0 0 66.60158125249941 69.83507567186933" height="69.83507567186933" width="66.60158125249941"><g><svg xmlns="http://www.w3.org/2000/svg" xmlns:xlink="http://www.w3.org/1999/xlink" version="1.1" x="0" y="0" viewBox="24.8861797361808 26.404 51.499699155959966 54.000000000000014" enable-background="new 0 0 100 100" xml:space="preserve" height="69.83507567186933" width="66.60158125249941" class="icon-icon-0" data-fill-palette-color="quaternary" id="icon-0"><g fill="#ffffff" data-fill-palette-color="quaternary"><path d="M75.386 26.404h-49.5c-0.271 0-0.532 0.11-0.721 0.307s-0.289 0.46-0.278 0.731l2 52c0.021 0.537 0.462 0.962 0.999 0.962h44.5c0.53 0 0.968-0.413 0.998-0.942l3-52c0.017-0.274-0.082-0.544-0.271-0.744C75.924 26.518 75.661 26.404 75.386 26.404zM71.441 78.404H28.848l-1.923-50h47.401L71.441 78.404z" fill="#ffffff" data-fill-palette-color="quaternary"></path><path d="M48.886 59.154h3.5c7.168 0 13-5.832 13-13v-11.75c0-0.553-0.447-1-1-1s-1 0.447-1 1v11.75c0 6.065-4.935 11-11 11h-3.5c-6.065 0-11-4.935-11-11v-11.75c0-0.553-0.447-1-1-1s-1 0.447-1 1v11.75C35.886 53.322 41.718 59.154 48.886 59.154z" fill="#ffffff" data-fill-palette-color="quaternary"></path></g></svg></g></svg></g><g></g></svg></g></svg></g></svg></g></svg></g><defs></defs></svg><rect width="342.85155851775386" height="342.85155851775386" fill="none" stroke="none" visibility="hidden"></rect></g></svg></g></svg>